<svg xmlns="http://www.w3.org/2000/svg" viewBox="0 0 64 64">
  <rect width="64" height="64" rx="14" fill="#0A8CFF"/>
  <path d="M35.6 12.4c2.5.7 4 3.3 3.3 5.8L33.1 39c-.7 2.5-3.3 4-5.8 3.3-2.5-.7-4-3.3-3.3-5.8l5.8-20.8c.7-2.5 3.3-4 5.8-3.3Z" fill="#fff"/>
  <path d="M48.5 28.5c2.2 1.4 2.8 4.3 1.4 6.5-4.6 7-11.7 11-19.2 11-4 0-7.8-1.1-11.1-3.1l-5 5c-1.8 1.8-4.8 1.8-6.6 0-1.8-1.8-1.8-4.8 0-6.6l7.8-7.8c1.7-1.7 4.4-1.8 6.3-.3 2.3 1.8 5.2 2.8 8.6 2.8 4.2 0 8.4-2.4 11.3-6.8 1.4-2.2 4.3-2.8 6.5-1.4Z" fill="#fff"/>
</svg>
